<svg 
 xmlns="http://www.w3.org/2000/svg"
 xmlns:xlink="http://www.w3.org/1999/xlink"
 width="383px" height="442px">
<path fill-rule="evenodd"  fill="rgb(242, 244, 248)"
 d="M310.280,441.986 L73.494,441.986 C32.940,441.986 0.854,407.669 0.854,376.385 L0.854,214.201 C107.076,214.201 212.241,214.201 318.557,214.201 C318.557,209.369 318.557,199.926 318.557,199.484 C318.887,159.120 330.705,121.661 350.690,90.268 C370.739,121.661 382.588,159.167 382.935,199.594 C382.935,199.974 382.935,209.369 382.935,214.201 L382.935,214.231 L382.935,376.385 C382.935,407.669 350.785,441.986 310.280,441.986 ZM227.838,306.285 C227.838,257.803 155.952,257.851 155.952,306.285 L155.952,350.171 C155.952,398.669 227.838,398.669 227.838,350.171 L227.838,306.285 ZM336.779,96.062 L333.428,102.395 L330.375,108.916 L327.449,115.550 L324.772,122.245 L322.334,129.084 L320.035,136.063 L318.069,143.233 L316.306,150.355 L314.826,157.651 L313.632,164.962 L312.860,170.459 C301.012,110.039 252.889,68.505 191.862,68.505 C122.087,68.505 65.216,128.198 65.216,201.380 L0.854,201.380 C0.854,91.009 86.697,0.964 191.862,0.964 C256.287,0.964 310.374,30.589 345.010,82.134 L340.320,89.825 L336.779,96.062 Z"/>
</svg>