<svg 
 xmlns="http://www.w3.org/2000/svg"
 xmlns:xlink="http://www.w3.org/1999/xlink"
 width="113px" height="45px">
<path fill-rule="evenodd"  fill="rgb(2, 171, 255)"
 d="M108.081,34.911 L101.961,37.360 C101.800,37.424 101.628,37.457 101.453,37.457 L100.407,37.457 L100.285,37.802 C99.197,40.900 96.791,43.299 93.684,44.385 C92.531,44.789 91.332,44.993 90.121,44.993 C85.555,44.993 81.469,42.103 79.957,37.802 L79.836,37.457 L28.650,37.457 L28.528,37.802 C27.440,40.899 25.034,43.299 21.927,44.385 C20.773,44.789 19.575,44.993 18.364,44.993 C13.797,44.993 9.712,42.103 8.200,37.802 L8.079,37.457 L1.370,37.457 C0.615,37.457 0.000,36.844 0.000,36.090 L0.000,24.909 C0.005,22.029 1.565,19.349 4.073,17.914 C10.564,14.225 17.944,12.231 25.413,12.147 L25.478,12.146 L25.599,12.115 L32.128,8.563 C41.427,3.513 51.941,0.840 62.530,0.831 L64.758,0.831 C73.840,0.831 82.620,2.717 90.853,6.436 C93.325,7.547 95.750,8.829 98.064,10.246 L98.110,10.273 L98.209,10.309 L111.089,12.142 C111.759,12.239 112.265,12.820 112.265,13.496 L112.265,28.747 C112.274,31.486 110.632,33.905 108.081,34.911 ZM11.631,38.642 C12.819,40.436 14.637,41.661 16.750,42.091 C17.282,42.201 17.829,42.255 18.373,42.255 C22.187,42.255 25.509,39.548 26.273,35.819 C26.381,35.288 26.437,34.746 26.437,34.208 C26.438,30.399 23.723,27.082 19.982,26.320 C19.448,26.212 18.902,26.156 18.358,26.156 C14.545,26.156 11.222,28.863 10.457,32.594 C10.026,34.702 10.442,36.850 11.631,38.642 ZM60.427,3.624 L59.886,3.647 C50.683,4.044 41.538,6.573 33.442,10.961 L32.899,11.256 L31.397,12.130 L60.427,12.130 L60.427,3.624 ZM60.427,14.863 L25.919,14.863 C18.747,14.864 11.663,16.740 5.432,20.287 C3.774,21.233 2.743,23.004 2.740,24.909 L2.740,34.724 L7.553,34.724 L7.553,34.208 C7.553,28.263 12.403,23.426 18.366,23.426 C24.327,23.426 29.177,28.263 29.177,34.208 L29.177,34.724 L60.427,34.724 L60.427,14.863 ZM83.388,38.642 C84.576,40.436 86.394,41.661 88.506,42.091 C89.038,42.201 89.586,42.255 90.130,42.255 C93.944,42.255 97.267,39.548 98.031,35.819 C98.139,35.289 98.194,34.748 98.194,34.208 C98.195,30.399 95.481,27.082 91.739,26.320 C91.206,26.212 90.660,26.156 90.116,26.156 C86.302,26.156 82.979,28.863 82.214,32.594 C81.782,34.702 82.199,36.849 83.388,38.642 ZM87.166,7.846 C80.027,5.005 72.509,3.565 64.821,3.565 L63.167,3.565 L63.167,12.130 L83.890,12.130 L87.896,8.137 L87.166,7.846 ZM109.524,20.511 L103.859,20.511 L103.859,17.778 L109.524,17.778 L109.524,14.680 L97.481,12.965 C97.290,12.937 97.113,12.872 96.951,12.771 C94.999,11.560 92.968,10.452 90.912,9.478 L90.582,9.320 L85.427,14.461 C85.172,14.715 84.818,14.862 84.458,14.862 L63.169,14.862 L63.169,34.722 L79.317,34.722 L79.317,34.205 C79.323,28.266 84.173,23.430 90.130,23.424 C90.508,23.424 90.869,23.445 91.230,23.480 C91.299,23.486 91.365,23.498 91.431,23.509 L91.818,23.567 C92.001,23.592 92.149,23.612 92.295,23.643 C92.359,23.655 92.420,23.672 92.480,23.688 L92.889,23.791 C93.062,23.834 93.197,23.866 93.331,23.907 C93.416,23.934 93.493,23.963 93.581,23.997 L93.946,24.130 C94.079,24.176 94.212,24.221 94.317,24.266 C94.413,24.307 94.497,24.348 94.588,24.393 L94.929,24.557 C95.054,24.615 95.167,24.668 95.263,24.719 C95.406,24.795 95.527,24.871 95.674,24.966 C95.748,25.015 95.826,25.061 95.903,25.106 C96.034,25.183 96.097,25.219 96.155,25.258 C96.252,25.322 96.349,25.396 96.444,25.470 L96.715,25.671 C96.805,25.734 96.889,25.793 96.973,25.865 C97.051,25.932 97.375,26.231 97.375,26.231 L97.506,26.346 C97.585,26.415 97.664,26.483 97.743,26.564 C97.801,26.624 97.861,26.690 97.920,26.755 C97.989,26.835 98.058,26.910 98.121,26.974 C98.244,27.098 98.340,27.195 98.441,27.318 C98.532,27.427 98.619,27.544 98.699,27.655 L98.879,27.893 C98.949,27.984 99.008,28.060 99.070,28.148 C99.167,28.287 99.261,28.444 99.338,28.581 C99.384,28.662 99.431,28.735 99.478,28.809 C99.527,28.887 99.571,28.955 99.612,29.028 C99.663,29.123 99.712,29.228 99.761,29.330 L99.921,29.653 C99.978,29.763 100.024,29.852 100.061,29.946 L100.304,30.607 C100.356,30.743 100.394,30.844 100.428,30.949 C100.460,31.046 100.484,31.145 100.508,31.242 L100.596,31.577 C100.635,31.715 100.673,31.851 100.702,31.978 C100.724,32.079 100.740,32.188 100.756,32.298 L100.814,32.664 C100.837,32.796 100.858,32.914 100.870,33.032 C100.879,33.136 100.885,33.249 100.889,33.358 L100.916,33.754 C100.926,33.863 100.935,33.962 100.935,34.062 L100.935,34.826 L107.062,32.373 C108.562,31.782 109.530,30.358 109.524,28.746 L109.524,20.511 ZM90.122,32.479 C91.078,32.479 91.854,33.252 91.854,34.205 C91.854,35.159 91.078,35.933 90.122,35.933 C89.166,35.933 88.390,35.159 88.390,34.205 C88.390,33.252 89.166,32.479 90.122,32.479 ZM53.726,20.511 L47.209,20.511 L47.209,17.778 L53.726,17.778 L53.726,20.511 ZM18.364,32.479 C19.321,32.479 20.096,33.252 20.096,34.205 C20.096,35.159 19.321,35.933 18.364,35.933 C17.408,35.933 16.633,35.159 16.633,34.205 C16.633,33.252 17.408,32.479 18.364,32.479 Z"/>
</svg>