<svg 
 xmlns="http://www.w3.org/2000/svg"
 xmlns:xlink="http://www.w3.org/1999/xlink"
 width="94px" height="22px">
<path fill-rule="evenodd"  fill="rgb(49, 71, 99)"
 d="M93.824,21.274 C93.805,21.293 93.781,21.311 93.754,21.330 C93.727,21.348 93.692,21.365 93.649,21.379 C93.606,21.395 93.555,21.407 93.495,21.417 C93.435,21.426 93.363,21.431 93.281,21.431 L92.910,21.431 L92.910,21.442 L94.005,21.979 L93.322,21.979 L92.375,21.485 C92.345,21.470 92.316,21.449 92.285,21.426 C92.255,21.401 92.240,21.379 92.240,21.357 L92.240,21.322 C92.240,21.292 92.260,21.267 92.301,21.247 C92.343,21.227 92.403,21.217 92.483,21.217 L93.026,21.217 C93.072,21.217 93.124,21.214 93.180,21.207 C93.236,21.199 93.283,21.180 93.322,21.150 C93.336,21.138 93.348,21.123 93.357,21.104 C93.367,21.085 93.374,21.066 93.378,21.046 C93.382,21.027 93.385,21.007 93.386,20.989 C93.387,20.970 93.388,20.954 93.388,20.941 C93.388,20.880 93.378,20.833 93.359,20.801 C93.340,20.769 93.315,20.746 93.285,20.730 C93.241,20.706 93.190,20.693 93.133,20.689 C93.075,20.686 93.025,20.684 92.981,20.684 L92.100,20.684 C92.070,20.684 92.044,20.685 92.021,20.687 C92.000,20.689 91.977,20.696 91.956,20.708 C91.926,20.721 91.909,20.734 91.905,20.748 C91.900,20.762 91.898,20.776 91.898,20.793 L91.898,21.979 L91.355,21.979 L91.355,20.714 C91.355,20.682 91.361,20.648 91.371,20.613 C91.383,20.577 91.417,20.545 91.474,20.516 C91.527,20.490 91.583,20.473 91.645,20.466 C91.707,20.458 91.766,20.455 91.820,20.455 L93.186,20.455 C93.236,20.455 93.288,20.456 93.342,20.458 C93.398,20.461 93.452,20.466 93.507,20.475 C93.562,20.483 93.615,20.497 93.665,20.516 C93.716,20.535 93.762,20.561 93.803,20.595 C93.872,20.647 93.914,20.702 93.927,20.760 C93.941,20.818 93.948,20.875 93.948,20.930 C93.948,20.985 93.941,21.042 93.929,21.101 C93.917,21.160 93.882,21.217 93.824,21.274 ZM93.610,16.118 C93.522,16.392 93.389,16.657 93.212,16.913 C93.036,17.170 92.791,17.401 92.477,17.606 C92.084,17.863 91.667,18.021 91.225,18.081 C90.785,18.141 90.368,18.171 89.975,18.171 L79.996,18.171 L79.996,15.861 L88.768,15.861 C88.945,15.861 89.141,15.840 89.357,15.797 C89.572,15.754 89.759,15.647 89.916,15.476 C90.073,15.339 90.161,15.190 90.181,15.027 C90.200,14.864 90.210,14.732 90.210,14.629 C90.210,14.441 90.186,14.261 90.137,14.090 C90.088,13.919 89.965,13.757 89.768,13.603 C89.710,13.551 89.631,13.505 89.533,13.461 C89.436,13.419 89.283,13.363 89.077,13.295 C88.871,13.226 88.601,13.149 88.267,13.064 C87.934,12.978 87.493,12.867 86.943,12.730 L83.941,12.011 C83.117,11.823 82.420,11.596 81.851,11.331 C81.282,11.066 80.840,10.745 80.526,10.369 C80.212,9.993 80.011,9.599 79.923,9.188 C79.835,8.778 79.790,8.401 79.790,8.059 C79.790,7.717 79.835,7.340 79.923,6.930 C80.011,6.519 80.212,6.126 80.526,5.749 C80.762,5.476 81.027,5.257 81.321,5.095 C81.616,4.932 81.924,4.813 82.248,4.735 C82.572,4.658 82.906,4.612 83.249,4.594 C83.592,4.577 83.931,4.568 84.264,4.568 L93.066,4.568 L93.066,6.879 L84.795,6.879 C84.598,6.879 84.397,6.887 84.191,6.904 C83.985,6.921 83.784,6.998 83.587,7.135 C83.372,7.272 83.244,7.422 83.205,7.584 C83.166,7.747 83.146,7.922 83.146,8.110 C83.146,8.299 83.170,8.478 83.220,8.649 C83.269,8.820 83.411,8.992 83.646,9.163 C83.764,9.248 83.911,9.325 84.088,9.394 C84.264,9.462 84.446,9.526 84.632,9.586 C84.819,9.646 85.001,9.702 85.177,9.753 C85.354,9.804 85.491,9.839 85.589,9.856 L88.945,10.677 C89.886,10.916 90.672,11.143 91.300,11.357 C91.928,11.571 92.438,11.857 92.830,12.217 C93.262,12.610 93.531,13.029 93.640,13.474 C93.747,13.919 93.802,14.330 93.802,14.706 C93.802,14.878 93.792,15.087 93.772,15.335 C93.752,15.583 93.698,15.844 93.610,16.118 ZM76.460,21.974 C76.406,21.971 76.355,21.957 76.308,21.932 C76.259,21.907 76.229,21.878 76.218,21.846 C76.207,21.813 76.201,21.782 76.201,21.753 L76.201,20.673 C76.201,20.642 76.210,20.613 76.228,20.585 C76.246,20.556 76.270,20.533 76.300,20.514 C76.347,20.486 76.402,20.469 76.466,20.464 C76.531,20.458 76.590,20.455 76.646,20.455 L78.493,20.455 L78.493,20.684 L76.938,20.684 C76.913,20.684 76.888,20.685 76.862,20.687 C76.836,20.689 76.811,20.695 76.789,20.705 C76.768,20.717 76.755,20.730 76.751,20.743 C76.747,20.756 76.744,20.768 76.744,20.779 L76.744,21.086 L78.452,21.086 L78.452,21.315 L76.744,21.315 L76.744,21.673 C76.744,21.700 76.758,21.720 76.786,21.731 C76.802,21.740 76.826,21.746 76.858,21.748 C76.889,21.750 76.926,21.751 76.970,21.751 L78.509,21.751 L78.509,21.979 L76.638,21.979 C76.575,21.979 76.516,21.978 76.460,21.974 ZM77.023,17.658 C76.690,17.897 76.302,18.042 75.861,18.094 C75.419,18.145 74.993,18.171 74.581,18.171 L69.076,18.171 C68.174,18.171 67.403,18.098 66.766,17.953 C66.128,17.807 65.544,17.538 65.014,17.144 C64.367,16.648 63.940,16.066 63.734,15.399 C63.528,14.732 63.425,13.979 63.425,13.141 L63.425,4.568 L66.869,4.568 L66.869,12.602 C66.869,13.201 66.913,13.684 67.001,14.052 C67.090,14.420 67.242,14.732 67.457,14.988 C67.771,15.365 68.159,15.604 68.620,15.707 C69.081,15.810 69.626,15.861 70.254,15.861 L73.109,15.861 C73.560,15.861 73.893,15.767 74.110,15.579 C74.267,15.442 74.355,15.305 74.375,15.168 C74.394,15.031 74.404,14.894 74.404,14.757 L74.404,4.568 L77.848,4.568 L77.848,15.733 C77.848,15.972 77.809,16.285 77.730,16.669 C77.651,17.055 77.416,17.384 77.023,17.658 ZM63.743,20.541 C63.830,20.516 63.918,20.497 64.006,20.483 C64.094,20.470 64.175,20.462 64.253,20.459 C64.330,20.456 64.394,20.455 64.446,20.455 L65.602,20.455 L65.602,20.684 L64.701,20.684 C64.622,20.684 64.545,20.685 64.471,20.687 C64.396,20.689 64.327,20.695 64.263,20.705 C64.198,20.716 64.139,20.730 64.086,20.749 C64.032,20.768 63.985,20.793 63.944,20.825 C63.900,20.859 63.862,20.907 63.830,20.970 C63.799,21.033 63.783,21.122 63.783,21.235 C63.783,21.292 63.787,21.341 63.795,21.382 C63.804,21.423 63.815,21.458 63.829,21.488 C63.843,21.517 63.858,21.541 63.874,21.560 C63.890,21.578 63.905,21.593 63.919,21.605 C63.993,21.665 64.095,21.704 64.224,21.723 C64.353,21.741 64.502,21.751 64.673,21.751 L65.648,21.751 L65.648,21.979 L64.433,21.979 C64.365,21.979 64.291,21.978 64.212,21.974 C64.132,21.971 64.051,21.963 63.970,21.950 C63.889,21.938 63.810,21.920 63.732,21.896 C63.654,21.872 63.582,21.840 63.516,21.801 C63.448,21.760 63.394,21.716 63.355,21.668 C63.317,21.621 63.289,21.572 63.269,21.522 C63.250,21.473 63.237,21.424 63.232,21.375 C63.227,21.327 63.224,21.281 63.224,21.239 C63.224,21.185 63.228,21.131 63.234,21.077 C63.241,21.022 63.254,20.969 63.273,20.918 C63.292,20.866 63.321,20.817 63.358,20.772 C63.395,20.726 63.443,20.684 63.504,20.647 C63.575,20.602 63.654,20.566 63.743,20.541 ZM61.310,20.455 L61.853,20.455 L61.853,21.979 L61.310,21.979 L61.310,20.455 ZM60.599,17.478 C60.325,17.803 59.986,18.000 59.584,18.068 C59.181,18.137 58.804,18.171 58.450,18.171 L52.299,18.171 C51.906,18.171 51.480,18.141 51.018,18.081 C50.557,18.021 50.101,17.897 49.649,17.709 C49.199,17.521 48.771,17.251 48.369,16.900 C47.967,16.550 47.619,16.075 47.325,15.476 C47.128,15.083 46.951,14.548 46.794,13.872 C46.637,13.196 46.559,12.294 46.559,11.165 C46.559,10.446 46.628,9.672 46.765,8.842 C46.902,8.012 47.236,7.264 47.766,6.596 C48.139,6.117 48.565,5.741 49.046,5.467 C49.527,5.193 50.008,4.992 50.488,4.864 C50.969,4.735 51.430,4.654 51.872,4.620 C52.313,4.586 52.691,4.568 53.005,4.568 L57.627,4.568 L57.627,0.206 L61.070,0.206 L61.070,15.784 C61.070,16.075 61.031,16.383 60.953,16.708 C60.874,17.033 60.756,17.290 60.599,17.478 ZM57.627,6.879 L53.682,6.879 C53.231,6.879 52.730,6.947 52.181,7.084 C51.632,7.221 51.170,7.554 50.797,8.085 C50.621,8.324 50.463,8.683 50.327,9.163 C50.189,9.642 50.121,10.343 50.121,11.267 C50.121,12.328 50.174,13.072 50.283,13.500 C50.390,13.928 50.473,14.202 50.532,14.321 C50.709,14.664 50.925,14.937 51.180,15.142 C51.435,15.348 51.705,15.502 51.990,15.604 C52.274,15.707 52.564,15.775 52.858,15.810 C53.152,15.844 53.427,15.861 53.682,15.861 L56.449,15.861 C56.527,15.861 56.669,15.853 56.875,15.835 C57.082,15.818 57.244,15.758 57.361,15.656 C57.499,15.553 57.577,15.395 57.597,15.181 C57.617,14.967 57.627,14.809 57.627,14.706 L57.627,6.879 ZM46.827,20.455 L48.485,20.455 L48.485,20.684 L47.013,20.684 C46.974,20.684 46.935,20.686 46.895,20.689 C46.855,20.693 46.819,20.702 46.786,20.719 C46.750,20.736 46.729,20.756 46.722,20.779 C46.716,20.803 46.712,20.822 46.712,20.836 C46.712,20.869 46.728,20.901 46.759,20.932 C46.791,20.963 46.864,20.988 46.979,21.008 L48.033,21.184 C48.129,21.201 48.210,21.217 48.278,21.235 C48.345,21.252 48.400,21.272 48.444,21.294 C48.488,21.315 48.522,21.340 48.547,21.367 C48.572,21.393 48.590,21.420 48.602,21.447 C48.615,21.474 48.623,21.500 48.627,21.525 C48.632,21.549 48.633,21.570 48.633,21.588 C48.633,21.635 48.624,21.685 48.607,21.735 C48.589,21.785 48.550,21.830 48.490,21.871 C48.418,21.920 48.338,21.951 48.251,21.962 C48.163,21.974 48.071,21.979 47.975,21.979 L46.206,21.979 L46.206,21.751 L47.803,21.751 C47.868,21.751 47.919,21.745 47.955,21.733 C47.990,21.720 48.017,21.705 48.035,21.688 C48.053,21.670 48.064,21.652 48.067,21.633 C48.072,21.615 48.074,21.599 48.074,21.585 C48.074,21.571 48.071,21.556 48.066,21.540 C48.061,21.524 48.048,21.508 48.029,21.493 C48.009,21.478 47.981,21.463 47.944,21.449 C47.907,21.436 47.857,21.423 47.794,21.413 L46.659,21.224 C46.647,21.223 46.629,21.219 46.603,21.214 C46.577,21.209 46.547,21.201 46.514,21.192 C46.482,21.183 46.447,21.172 46.411,21.158 C46.376,21.146 46.345,21.130 46.317,21.110 C46.284,21.090 46.258,21.068 46.239,21.043 C46.220,21.018 46.205,20.993 46.194,20.968 C46.183,20.943 46.176,20.917 46.173,20.893 C46.170,20.868 46.168,20.845 46.168,20.823 C46.168,20.776 46.179,20.728 46.200,20.677 C46.221,20.626 46.271,20.581 46.354,20.540 C46.428,20.502 46.508,20.479 46.593,20.469 C46.678,20.460 46.755,20.455 46.827,20.455 ZM43.026,16.862 C42.615,17.204 42.139,17.474 41.599,17.670 C41.059,17.867 40.500,18.013 39.922,18.107 C39.343,18.201 38.778,18.261 38.229,18.286 C37.680,18.312 37.179,18.325 36.728,18.325 C36.257,18.325 35.747,18.312 35.197,18.286 C34.648,18.261 34.088,18.201 33.520,18.107 C32.951,18.013 32.400,17.867 31.871,17.670 C31.341,17.474 30.860,17.204 30.429,16.862 C29.958,16.486 29.590,16.058 29.325,15.579 C29.060,15.100 28.864,14.608 28.737,14.103 C28.609,13.598 28.525,13.111 28.486,12.640 C28.447,12.170 28.427,11.763 28.427,11.421 C28.427,11.045 28.447,10.609 28.486,10.112 C28.525,9.616 28.614,9.116 28.751,8.611 C28.888,8.106 29.089,7.610 29.355,7.123 C29.619,6.635 29.977,6.211 30.429,5.852 C30.860,5.510 31.341,5.240 31.871,5.044 C32.400,4.847 32.951,4.701 33.520,4.607 C34.088,4.513 34.648,4.458 35.197,4.441 C35.747,4.423 36.257,4.415 36.728,4.415 C37.199,4.415 37.709,4.423 38.259,4.441 C38.808,4.458 39.367,4.513 39.936,4.607 C40.505,4.701 41.055,4.847 41.584,5.044 C42.114,5.240 42.595,5.510 43.026,5.852 C43.478,6.211 43.836,6.635 44.101,7.123 C44.366,7.610 44.567,8.102 44.704,8.598 C44.842,9.094 44.930,9.582 44.969,10.061 C45.009,10.540 45.028,10.959 45.028,11.318 C45.028,12.773 44.837,13.940 44.454,14.822 C44.071,15.703 43.595,16.383 43.026,16.862 ZM41.466,10.574 C41.466,10.266 41.437,9.950 41.379,9.625 C41.320,9.300 41.221,8.979 41.084,8.662 C40.947,8.346 40.741,8.059 40.466,7.803 C40.211,7.563 39.931,7.370 39.627,7.225 C39.323,7.079 39.009,6.968 38.685,6.892 C38.362,6.815 38.032,6.767 37.699,6.750 C37.366,6.733 37.042,6.725 36.728,6.725 C36.453,6.725 36.144,6.733 35.800,6.750 C35.457,6.767 35.119,6.815 34.785,6.892 C34.452,6.968 34.123,7.079 33.799,7.225 C33.475,7.370 33.196,7.563 32.960,7.803 C32.724,8.042 32.538,8.324 32.400,8.649 C32.264,8.974 32.165,9.304 32.106,9.638 C32.048,9.971 32.013,10.292 32.003,10.600 C31.993,10.908 31.989,11.173 31.989,11.395 C31.989,11.960 32.033,12.559 32.121,13.192 C32.209,13.825 32.499,14.390 32.990,14.886 C33.500,15.382 34.093,15.694 34.770,15.823 C35.447,15.951 36.100,16.015 36.728,16.015 C37.375,16.015 38.028,15.951 38.685,15.823 C39.343,15.694 39.926,15.382 40.437,14.886 C40.947,14.390 41.246,13.834 41.334,13.218 C41.423,12.602 41.466,11.994 41.466,11.395 C41.466,11.139 41.466,10.865 41.466,10.574 ZM26.674,20.455 L27.217,20.455 L27.217,21.979 L26.674,21.979 L26.674,20.455 ZM22.128,4.184 C22.128,3.944 22.084,3.794 21.995,3.735 C21.908,3.675 21.834,3.645 21.774,3.645 C21.677,3.645 21.579,3.717 21.480,3.863 C21.383,4.008 21.314,4.133 21.274,4.235 L16.006,16.220 C15.849,16.563 15.696,16.867 15.550,17.131 C15.402,17.397 15.221,17.624 15.005,17.811 C14.789,18.000 14.525,18.141 14.211,18.235 C13.897,18.329 13.514,18.376 13.062,18.376 C12.572,18.376 12.165,18.316 11.841,18.197 C11.517,18.077 11.247,17.919 11.031,17.722 C10.816,17.525 10.639,17.298 10.502,17.042 C10.364,16.785 10.236,16.511 10.119,16.220 L4.850,4.235 C4.811,4.133 4.742,4.008 4.644,3.863 C4.546,3.717 4.448,3.645 4.349,3.645 C4.193,3.645 4.100,3.726 4.070,3.888 C4.041,4.051 4.026,4.150 4.026,4.184 L4.114,18.171 L0.228,18.171 L0.228,2.362 C0.228,1.780 0.376,1.331 0.670,1.014 C0.965,0.698 1.298,0.462 1.671,0.308 C2.044,0.154 2.412,0.064 2.775,0.039 C3.138,0.013 3.398,0.000 3.555,0.000 C4.144,0.000 4.639,0.060 5.042,0.180 C5.443,0.300 5.777,0.467 6.042,0.680 C6.307,0.894 6.528,1.142 6.705,1.425 C6.881,1.707 7.038,2.002 7.175,2.310 L12.503,14.296 C12.601,14.484 12.694,14.642 12.783,14.770 C12.871,14.899 12.965,14.963 13.062,14.963 C13.161,14.963 13.254,14.899 13.342,14.770 C13.430,14.642 13.523,14.484 13.622,14.296 L18.950,2.310 C19.165,1.797 19.406,1.390 19.671,1.091 C19.935,0.792 20.224,0.561 20.538,0.398 C20.852,0.236 21.176,0.129 21.510,0.077 C21.844,0.026 22.197,0.000 22.570,0.000 C23.531,0.000 24.326,0.189 24.954,0.565 C25.582,0.942 25.896,1.540 25.896,2.362 L25.896,18.171 L22.011,18.171 L22.128,4.184 ZM0.427,20.455 L1.797,20.455 C1.835,20.455 1.879,20.455 1.927,20.456 C1.975,20.457 2.024,20.460 2.074,20.466 C2.125,20.472 2.176,20.481 2.227,20.493 C2.278,20.505 2.325,20.523 2.369,20.546 C2.418,20.571 2.457,20.600 2.486,20.632 C2.515,20.665 2.537,20.700 2.552,20.736 C2.567,20.772 2.577,20.809 2.581,20.845 C2.585,20.881 2.587,20.915 2.587,20.947 C2.587,20.978 2.584,21.012 2.579,21.050 C2.573,21.089 2.562,21.128 2.546,21.166 C2.529,21.205 2.505,21.241 2.472,21.276 C2.439,21.311 2.394,21.341 2.336,21.366 C2.281,21.389 2.215,21.407 2.139,21.420 C2.062,21.433 1.981,21.440 1.896,21.440 L0.546,21.440 L0.546,21.979 L0.003,21.979 L0.003,20.684 C0.003,20.655 0.007,20.625 0.015,20.597 C0.023,20.568 0.052,20.540 0.102,20.514 C0.148,20.489 0.202,20.473 0.263,20.466 C0.322,20.458 0.378,20.455 0.427,20.455 ZM0.546,21.211 L1.579,21.211 C1.639,21.211 1.702,21.209 1.766,21.204 C1.831,21.200 1.886,21.183 1.933,21.154 C1.955,21.141 1.972,21.126 1.984,21.108 C1.997,21.089 2.007,21.071 2.013,21.052 C2.020,21.033 2.024,21.014 2.025,20.995 C2.027,20.977 2.028,20.960 2.028,20.945 C2.028,20.912 2.022,20.875 2.011,20.834 C2.000,20.793 1.971,20.761 1.925,20.736 C1.878,20.711 1.822,20.696 1.756,20.692 C1.690,20.686 1.633,20.684 1.587,20.684 L0.710,20.684 C0.692,20.684 0.671,20.684 0.649,20.685 C0.627,20.686 0.605,20.692 0.583,20.703 C0.564,20.713 0.553,20.724 0.550,20.737 C0.548,20.749 0.546,20.762 0.546,20.775 L0.546,21.211 ZM4.077,20.516 C4.128,20.490 4.185,20.473 4.247,20.466 C4.309,20.458 4.368,20.455 4.422,20.455 L5.788,20.455 C5.838,20.455 5.890,20.456 5.944,20.458 C6.000,20.461 6.054,20.466 6.109,20.475 C6.164,20.483 6.217,20.497 6.267,20.516 C6.318,20.535 6.364,20.561 6.405,20.595 C6.474,20.647 6.515,20.702 6.529,20.760 C6.543,20.818 6.550,20.875 6.550,20.930 C6.550,20.985 6.544,21.042 6.531,21.101 C6.519,21.160 6.484,21.217 6.426,21.274 C6.407,21.293 6.383,21.311 6.356,21.330 C6.329,21.348 6.294,21.365 6.251,21.379 C6.208,21.395 6.157,21.407 6.096,21.417 C6.037,21.426 5.965,21.431 5.883,21.431 L5.512,21.431 L5.512,21.442 L6.607,21.979 L5.924,21.979 L4.977,21.485 C4.947,21.470 4.918,21.449 4.887,21.426 C4.857,21.401 4.842,21.379 4.842,21.357 L4.842,21.322 C4.842,21.292 4.862,21.267 4.903,21.247 C4.945,21.227 5.006,21.217 5.085,21.217 L5.628,21.217 C5.674,21.217 5.726,21.214 5.782,21.207 C5.839,21.199 5.885,21.180 5.924,21.150 C5.938,21.138 5.950,21.123 5.959,21.104 C5.968,21.085 5.975,21.066 5.979,21.046 C5.984,21.027 5.987,21.007 5.987,20.989 C5.989,20.970 5.990,20.954 5.990,20.941 C5.990,20.880 5.980,20.833 5.961,20.801 C5.942,20.769 5.917,20.746 5.887,20.730 C5.843,20.706 5.792,20.693 5.735,20.689 C5.677,20.686 5.627,20.684 5.583,20.684 L4.702,20.684 C4.672,20.684 4.645,20.685 4.623,20.687 C4.602,20.689 4.580,20.696 4.558,20.708 C4.528,20.721 4.511,20.734 4.507,20.748 C4.502,20.762 4.500,20.776 4.500,20.793 L4.500,21.979 L3.957,21.979 L3.957,20.714 C3.957,20.682 3.963,20.648 3.974,20.613 C3.985,20.577 4.019,20.545 4.077,20.516 ZM7.903,20.889 C7.925,20.835 7.957,20.783 8.002,20.732 C8.046,20.683 8.107,20.638 8.187,20.599 C8.266,20.558 8.355,20.527 8.452,20.505 C8.550,20.483 8.649,20.467 8.750,20.457 C8.853,20.447 8.953,20.441 9.053,20.439 C9.153,20.438 9.248,20.437 9.335,20.437 C9.420,20.437 9.512,20.438 9.613,20.439 C9.713,20.441 9.814,20.447 9.917,20.457 C10.020,20.467 10.120,20.483 10.217,20.505 C10.315,20.527 10.403,20.558 10.483,20.599 C10.557,20.637 10.616,20.681 10.660,20.732 C10.704,20.782 10.737,20.835 10.761,20.891 C10.784,20.946 10.799,21.002 10.804,21.058 C10.809,21.115 10.812,21.168 10.812,21.217 C10.812,21.268 10.808,21.322 10.802,21.377 C10.795,21.433 10.780,21.489 10.758,21.544 C10.736,21.599 10.704,21.652 10.660,21.703 C10.616,21.754 10.557,21.798 10.483,21.836 C10.403,21.877 10.315,21.908 10.217,21.930 C10.120,21.952 10.020,21.968 9.917,21.977 C9.814,21.988 9.712,21.993 9.611,21.995 C9.509,21.996 9.417,21.997 9.335,21.997 C9.250,21.997 9.157,21.996 9.058,21.995 C8.957,21.993 8.856,21.988 8.753,21.977 C8.650,21.968 8.550,21.952 8.452,21.930 C8.355,21.908 8.266,21.877 8.187,21.836 C8.105,21.794 8.041,21.746 7.995,21.692 C7.950,21.639 7.917,21.584 7.897,21.528 C7.877,21.472 7.864,21.417 7.860,21.363 C7.855,21.310 7.854,21.261 7.854,21.217 C7.854,21.165 7.856,21.111 7.862,21.055 C7.868,20.999 7.881,20.944 7.903,20.889 ZM8.427,21.379 C8.437,21.426 8.450,21.465 8.467,21.500 C8.483,21.534 8.502,21.562 8.522,21.585 C8.543,21.607 8.566,21.626 8.590,21.642 C8.632,21.671 8.679,21.694 8.735,21.711 C8.789,21.727 8.848,21.740 8.911,21.749 C8.974,21.758 9.042,21.763 9.113,21.765 C9.184,21.767 9.257,21.769 9.331,21.769 C9.405,21.769 9.477,21.767 9.547,21.765 C9.617,21.763 9.684,21.758 9.748,21.749 C9.813,21.740 9.872,21.727 9.928,21.711 C9.982,21.694 10.032,21.671 10.076,21.642 C10.100,21.626 10.123,21.607 10.143,21.583 C10.164,21.560 10.183,21.532 10.199,21.498 C10.215,21.465 10.229,21.425 10.238,21.379 C10.248,21.332 10.252,21.278 10.252,21.217 C10.252,21.152 10.248,21.096 10.238,21.048 C10.229,21.001 10.215,20.961 10.199,20.927 C10.183,20.894 10.164,20.867 10.142,20.845 C10.120,20.823 10.097,20.805 10.076,20.790 C9.990,20.735 9.882,20.701 9.751,20.687 C9.619,20.673 9.479,20.666 9.331,20.666 C9.180,20.666 9.040,20.673 8.911,20.687 C8.782,20.701 8.675,20.735 8.590,20.790 C8.536,20.828 8.492,20.879 8.461,20.944 C8.429,21.009 8.413,21.100 8.413,21.217 C8.413,21.280 8.418,21.334 8.427,21.379 ZM12.289,20.509 C12.339,20.485 12.390,20.469 12.443,20.464 C12.497,20.458 12.548,20.455 12.597,20.455 L14.474,20.455 L14.474,20.684 L12.861,20.684 C12.842,20.684 12.825,20.684 12.808,20.685 C12.791,20.686 12.775,20.691 12.758,20.701 C12.742,20.710 12.732,20.720 12.729,20.730 C12.727,20.741 12.725,20.752 12.725,20.762 L12.725,21.093 L14.001,21.093 L14.001,21.322 L12.725,21.322 L12.725,21.979 L12.182,21.979 L12.182,20.656 C12.182,20.631 12.189,20.606 12.203,20.580 C12.216,20.555 12.245,20.531 12.289,20.509 ZM15.795,20.514 C15.842,20.486 15.897,20.469 15.961,20.464 C16.026,20.458 16.085,20.455 16.141,20.455 L17.988,20.455 L17.988,20.684 L16.433,20.684 C16.407,20.684 16.383,20.685 16.356,20.687 C16.330,20.689 16.306,20.695 16.284,20.705 C16.262,20.717 16.250,20.730 16.246,20.743 C16.241,20.756 16.240,20.768 16.240,20.779 L16.240,21.086 L17.947,21.086 L17.947,21.315 L16.240,21.315 L16.240,21.673 C16.240,21.700 16.253,21.720 16.280,21.731 C16.297,21.740 16.321,21.746 16.352,21.748 C16.384,21.750 16.421,21.751 16.466,21.751 L18.005,21.751 L18.005,21.979 L16.132,21.979 C16.069,21.979 16.010,21.978 15.955,21.974 C15.901,21.971 15.850,21.957 15.803,21.932 C15.754,21.907 15.724,21.878 15.712,21.846 C15.702,21.813 15.696,21.782 15.696,21.753 L15.696,20.673 C15.696,20.642 15.705,20.613 15.723,20.585 C15.740,20.556 15.765,20.533 15.795,20.514 ZM19.395,20.540 C19.469,20.502 19.549,20.479 19.634,20.469 C19.719,20.460 19.797,20.455 19.868,20.455 L21.527,20.455 L21.527,20.684 L20.053,20.684 C20.015,20.684 19.976,20.686 19.936,20.689 C19.896,20.693 19.860,20.702 19.827,20.719 C19.792,20.736 19.771,20.756 19.764,20.779 C19.757,20.803 19.753,20.822 19.753,20.836 C19.753,20.869 19.769,20.901 19.801,20.932 C19.832,20.963 19.905,20.988 20.021,21.008 L21.074,21.184 C21.170,21.201 21.251,21.217 21.319,21.235 C21.386,21.252 21.442,21.272 21.486,21.294 C21.530,21.315 21.563,21.340 21.588,21.367 C21.613,21.393 21.632,21.420 21.644,21.447 C21.656,21.474 21.664,21.500 21.669,21.525 C21.672,21.549 21.675,21.570 21.675,21.588 C21.675,21.635 21.666,21.685 21.648,21.735 C21.630,21.785 21.591,21.830 21.530,21.871 C21.459,21.920 21.380,21.951 21.292,21.962 C21.204,21.974 21.112,21.979 21.017,21.979 L19.247,21.979 L19.247,21.751 L20.843,21.751 C20.909,21.751 20.960,21.745 20.995,21.733 C21.032,21.720 21.058,21.705 21.076,21.688 C21.094,21.670 21.105,21.652 21.109,21.633 C21.113,21.615 21.115,21.599 21.115,21.585 C21.115,21.571 21.112,21.556 21.107,21.540 C21.101,21.524 21.089,21.508 21.069,21.493 C21.050,21.478 21.023,21.463 20.986,21.449 C20.948,21.436 20.899,21.423 20.835,21.413 L19.699,21.224 C19.689,21.223 19.670,21.219 19.644,21.214 C19.618,21.209 19.588,21.201 19.556,21.192 C19.522,21.183 19.488,21.172 19.453,21.158 C19.417,21.146 19.385,21.130 19.358,21.110 C19.325,21.090 19.299,21.068 19.279,21.043 C19.261,21.018 19.246,20.993 19.235,20.968 C19.223,20.943 19.217,20.917 19.214,20.893 C19.211,20.868 19.210,20.845 19.210,20.823 C19.210,20.776 19.220,20.728 19.241,20.677 C19.261,20.626 19.313,20.581 19.395,20.540 ZM23.065,20.540 C23.139,20.502 23.219,20.479 23.304,20.469 C23.389,20.460 23.467,20.455 23.538,20.455 L25.196,20.455 L25.196,20.684 L23.723,20.684 C23.685,20.684 23.646,20.686 23.606,20.689 C23.567,20.693 23.530,20.702 23.497,20.719 C23.462,20.736 23.440,20.756 23.434,20.779 C23.427,20.803 23.423,20.822 23.423,20.836 C23.423,20.869 23.439,20.901 23.471,20.932 C23.502,20.963 23.575,20.988 23.691,21.008 L24.744,21.184 C24.840,21.201 24.922,21.217 24.988,21.235 C25.056,21.252 25.112,21.272 25.156,21.294 C25.200,21.315 25.234,21.340 25.259,21.367 C25.283,21.393 25.302,21.420 25.314,21.447 C25.326,21.474 25.334,21.500 25.339,21.525 C25.343,21.549 25.345,21.570 25.345,21.588 C25.345,21.635 25.336,21.685 25.318,21.735 C25.300,21.785 25.261,21.830 25.201,21.871 C25.129,21.920 25.050,21.951 24.962,21.962 C24.874,21.974 24.783,21.979 24.687,21.979 L22.917,21.979 L22.917,21.751 L24.514,21.751 C24.579,21.751 24.630,21.745 24.666,21.733 C24.702,21.720 24.728,21.705 24.746,21.688 C24.764,21.670 24.775,21.652 24.779,21.633 C24.783,21.615 24.785,21.599 24.785,21.585 C24.785,21.571 24.783,21.556 24.777,21.540 C24.771,21.524 24.759,21.508 24.740,21.493 C24.721,21.478 24.693,21.463 24.656,21.449 C24.619,21.436 24.568,21.423 24.506,21.413 L23.370,21.224 C23.359,21.223 23.341,21.219 23.314,21.214 C23.289,21.209 23.259,21.201 23.226,21.192 C23.193,21.183 23.158,21.172 23.123,21.158 C23.087,21.146 23.056,21.130 23.028,21.110 C22.996,21.090 22.969,21.068 22.950,21.043 C22.931,21.018 22.915,20.993 22.905,20.968 C22.894,20.943 22.887,20.917 22.885,20.893 C22.882,20.868 22.880,20.845 22.880,20.823 C22.880,20.776 22.891,20.728 22.911,20.677 C22.931,20.626 22.983,20.581 23.065,20.540 ZM28.637,20.889 C28.659,20.835 28.691,20.783 28.735,20.732 C28.779,20.683 28.841,20.638 28.920,20.599 C29.000,20.558 29.088,20.527 29.186,20.505 C29.284,20.483 29.383,20.467 29.484,20.457 C29.585,20.447 29.687,20.441 29.787,20.439 C29.887,20.438 29.980,20.437 30.069,20.437 C30.153,20.437 30.246,20.438 30.346,20.439 C30.446,20.441 30.548,20.447 30.650,20.457 C30.753,20.467 30.853,20.483 30.951,20.505 C31.049,20.527 31.137,20.558 31.217,20.599 C31.291,20.637 31.350,20.681 31.393,20.732 C31.438,20.782 31.471,20.835 31.494,20.891 C31.518,20.946 31.532,21.002 31.537,21.058 C31.543,21.115 31.546,21.168 31.546,21.217 C31.546,21.268 31.542,21.322 31.535,21.377 C31.528,21.433 31.514,21.489 31.492,21.544 C31.470,21.599 31.438,21.652 31.393,21.703 C31.350,21.754 31.291,21.798 31.217,21.836 C31.137,21.877 31.049,21.908 30.951,21.930 C30.853,21.952 30.753,21.968 30.650,21.977 C30.548,21.988 30.445,21.993 30.344,21.995 C30.243,21.996 30.150,21.997 30.069,21.997 C29.983,21.997 29.891,21.996 29.791,21.995 C29.691,21.993 29.589,21.988 29.486,21.977 C29.383,21.968 29.284,21.952 29.186,21.930 C29.088,21.908 29.000,21.877 28.920,21.836 C28.838,21.794 28.774,21.746 28.729,21.692 C28.683,21.639 28.651,21.584 28.631,21.528 C28.609,21.472 28.597,21.417 28.593,21.363 C28.589,21.310 28.587,21.261 28.587,21.217 C28.587,21.165 28.590,21.111 28.595,21.055 C28.601,20.999 28.615,20.944 28.637,20.889 ZM29.161,21.379 C29.171,21.426 29.184,21.465 29.200,21.500 C29.217,21.534 29.235,21.562 29.256,21.585 C29.277,21.607 29.299,21.626 29.324,21.642 C29.365,21.671 29.413,21.694 29.467,21.711 C29.522,21.727 29.582,21.740 29.644,21.749 C29.708,21.758 29.775,21.763 29.846,21.765 C29.917,21.767 29.990,21.769 30.064,21.769 C30.138,21.769 30.210,21.767 30.281,21.765 C30.350,21.763 30.418,21.758 30.482,21.749 C30.546,21.740 30.606,21.727 30.661,21.711 C30.716,21.694 30.765,21.671 30.809,21.642 C30.834,21.626 30.856,21.607 30.877,21.583 C30.897,21.560 30.916,21.532 30.933,21.498 C30.949,21.465 30.961,21.425 30.971,21.379 C30.981,21.332 30.986,21.278 30.986,21.217 C30.986,21.152 30.981,21.096 30.971,21.048 C30.961,21.001 30.949,20.961 30.933,20.927 C30.916,20.894 30.897,20.867 30.874,20.845 C30.853,20.823 30.831,20.805 30.809,20.790 C30.724,20.735 30.616,20.701 30.484,20.687 C30.352,20.673 30.213,20.666 30.064,20.666 C29.914,20.666 29.774,20.673 29.644,20.687 C29.516,20.701 29.408,20.735 29.324,20.790 C29.269,20.828 29.225,20.879 29.194,20.944 C29.163,21.009 29.147,21.100 29.147,21.217 C29.147,21.280 29.152,21.334 29.161,21.379 ZM33.356,20.437 C33.485,20.437 33.584,20.449 33.652,20.472 C33.721,20.496 33.774,20.524 33.812,20.557 L35.035,21.579 C35.046,21.586 35.055,21.594 35.061,21.603 C35.068,21.612 35.081,21.616 35.101,21.616 C35.123,21.616 35.136,21.611 35.139,21.602 C35.144,21.592 35.145,21.585 35.145,21.579 L35.145,20.455 L35.673,20.455 L35.673,21.782 C35.673,21.859 35.630,21.914 35.547,21.947 C35.463,21.980 35.363,21.997 35.245,21.997 C35.157,21.997 35.073,21.989 34.993,21.973 C34.914,21.958 34.843,21.922 34.780,21.869 L33.566,20.853 C33.544,20.837 33.529,20.827 33.520,20.823 C33.512,20.819 33.505,20.817 33.500,20.817 C33.489,20.817 33.476,20.820 33.463,20.826 C33.449,20.833 33.442,20.844 33.442,20.860 L33.442,21.979 L32.916,21.979 L32.916,20.645 C32.916,20.579 32.955,20.528 33.033,20.492 C33.111,20.455 33.219,20.437 33.356,20.437 ZM38.020,20.475 C38.087,20.450 38.185,20.437 38.314,20.437 C38.437,20.437 38.534,20.450 38.604,20.475 C38.674,20.501 38.735,20.546 38.787,20.609 L39.873,21.979 L39.301,21.979 L39.005,21.594 L37.619,21.594 L37.327,21.979 L36.754,21.979 L37.841,20.609 C37.893,20.546 37.953,20.501 38.020,20.475 ZM38.865,21.390 L38.396,20.768 C38.388,20.757 38.377,20.743 38.363,20.728 C38.350,20.713 38.334,20.705 38.314,20.705 C38.295,20.705 38.278,20.713 38.265,20.728 C38.251,20.743 38.240,20.757 38.231,20.768 L37.758,21.390 L38.865,21.390 ZM41.499,21.668 C41.499,21.677 41.500,21.687 41.500,21.700 C41.502,21.712 41.514,21.723 41.536,21.733 C41.544,21.737 41.558,21.740 41.577,21.745 C41.596,21.749 41.628,21.751 41.671,21.751 L43.251,21.751 L43.251,21.979 L41.326,21.979 C41.279,21.979 41.231,21.977 41.182,21.971 C41.133,21.965 41.091,21.955 41.059,21.941 C41.037,21.930 41.014,21.915 40.990,21.895 C40.967,21.874 40.956,21.848 40.956,21.814 L40.956,20.455 L41.499,20.455 L41.499,21.668 ZM50.061,20.514 C50.108,20.486 50.163,20.469 50.228,20.464 C50.292,20.458 50.352,20.455 50.407,20.455 L52.254,20.455 L52.254,20.684 L50.699,20.684 C50.674,20.684 50.649,20.685 50.623,20.687 C50.597,20.689 50.573,20.695 50.550,20.705 C50.529,20.717 50.516,20.730 50.512,20.743 C50.508,20.756 50.506,20.768 50.506,20.779 L50.506,21.086 L52.213,21.086 L52.213,21.315 L50.506,21.315 L50.506,21.673 C50.506,21.700 50.520,21.720 50.547,21.731 C50.563,21.740 50.587,21.746 50.619,21.748 C50.650,21.750 50.688,21.751 50.732,21.751 L52.271,21.751 L52.271,21.979 L50.398,21.979 C50.336,21.979 50.276,21.978 50.221,21.974 C50.167,21.971 50.116,21.957 50.069,21.932 C50.020,21.907 49.990,21.878 49.979,21.846 C49.968,21.813 49.962,21.782 49.962,21.753 L49.962,20.673 C49.962,20.642 49.972,20.613 49.989,20.585 C50.007,20.556 50.032,20.533 50.061,20.514 ZM53.719,20.516 C53.771,20.490 53.828,20.473 53.890,20.466 C53.951,20.458 54.010,20.455 54.065,20.455 L55.431,20.455 C55.480,20.455 55.532,20.456 55.587,20.458 C55.642,20.461 55.697,20.466 55.752,20.475 C55.806,20.483 55.859,20.497 55.910,20.516 C55.961,20.535 56.007,20.561 56.047,20.595 C56.117,20.647 56.158,20.702 56.172,20.760 C56.185,20.818 56.192,20.875 56.192,20.930 C56.192,20.985 56.186,21.042 56.173,21.101 C56.161,21.160 56.126,21.217 56.069,21.274 C56.049,21.293 56.026,21.311 55.999,21.330 C55.971,21.348 55.936,21.365 55.893,21.379 C55.851,21.395 55.800,21.407 55.740,21.417 C55.679,21.426 55.608,21.431 55.525,21.431 L55.155,21.431 L55.155,21.442 L56.250,21.979 L55.566,21.979 L54.620,21.485 C54.590,21.470 54.560,21.449 54.530,21.426 C54.500,21.401 54.485,21.379 54.485,21.357 L54.485,21.322 C54.485,21.292 54.505,21.267 54.546,21.247 C54.587,21.227 54.648,21.217 54.727,21.217 L55.271,21.217 C55.317,21.217 55.368,21.214 55.425,21.207 C55.481,21.199 55.528,21.180 55.566,21.150 C55.580,21.138 55.592,21.123 55.601,21.104 C55.611,21.085 55.618,21.066 55.622,21.046 C55.626,21.027 55.629,21.007 55.630,20.989 C55.631,20.970 55.632,20.954 55.632,20.941 C55.632,20.880 55.622,20.833 55.604,20.801 C55.585,20.769 55.560,20.746 55.529,20.730 C55.486,20.706 55.435,20.693 55.377,20.689 C55.320,20.686 55.269,20.684 55.225,20.684 L54.345,20.684 C54.314,20.684 54.288,20.685 54.267,20.687 C54.245,20.689 54.222,20.696 54.201,20.708 C54.171,20.721 54.153,20.734 54.150,20.748 C54.145,20.762 54.143,20.776 54.143,20.793 L54.143,21.979 L53.600,21.979 L53.600,20.714 C53.600,20.682 53.605,20.648 53.616,20.613 C53.628,20.577 53.661,20.545 53.719,20.516 ZM58.656,21.686 C58.662,21.692 58.669,21.698 58.678,21.706 C58.685,21.714 58.699,21.719 58.718,21.719 C58.738,21.719 58.752,21.714 58.759,21.706 C58.768,21.698 58.774,21.692 58.780,21.686 L59.640,20.455 L60.229,20.455 L59.184,21.831 C59.169,21.849 59.152,21.867 59.130,21.887 C59.108,21.907 59.078,21.925 59.041,21.942 C59.004,21.958 58.960,21.972 58.907,21.982 C58.855,21.992 58.793,21.997 58.718,21.997 C58.685,21.997 58.649,21.996 58.607,21.993 C58.566,21.990 58.524,21.983 58.480,21.971 C58.436,21.960 58.394,21.943 58.354,21.921 C58.314,21.899 58.281,21.870 58.253,21.831 L57.208,20.455 L57.797,20.455 L58.656,21.686 ZM67.075,20.514 C67.121,20.486 67.177,20.469 67.242,20.464 C67.306,20.458 67.366,20.455 67.421,20.455 L69.268,20.455 L69.268,20.684 L67.713,20.684 C67.688,20.684 67.663,20.685 67.637,20.687 C67.611,20.689 67.587,20.695 67.565,20.705 C67.543,20.717 67.530,20.730 67.525,20.743 C67.522,20.756 67.519,20.768 67.519,20.779 L67.519,21.086 L69.227,21.086 L69.227,21.315 L67.519,21.315 L67.519,21.673 C67.519,21.700 67.533,21.720 67.561,21.731 C67.577,21.740 67.601,21.746 67.633,21.748 C67.664,21.750 67.702,21.751 67.746,21.751 L69.284,21.751 L69.284,21.979 L67.413,21.979 C67.349,21.979 67.290,21.978 67.236,21.974 C67.180,21.971 67.130,21.957 67.084,21.932 C67.034,21.907 67.003,21.878 66.993,21.846 C66.982,21.813 66.976,21.782 66.976,21.753 L66.976,20.673 C66.976,20.642 66.985,20.613 67.003,20.585 C67.021,20.556 67.045,20.533 67.075,20.514 ZM72.498,20.918 C72.517,20.866 72.545,20.817 72.582,20.772 C72.619,20.726 72.668,20.684 72.728,20.647 C72.800,20.602 72.880,20.566 72.967,20.541 C73.055,20.516 73.143,20.497 73.231,20.483 C73.318,20.470 73.401,20.462 73.477,20.459 C73.555,20.456 73.619,20.455 73.671,20.455 L74.827,20.455 L74.827,20.684 L73.926,20.684 C73.847,20.684 73.769,20.685 73.695,20.687 C73.621,20.689 73.552,20.695 73.488,20.705 C73.424,20.716 73.365,20.730 73.311,20.749 C73.257,20.768 73.210,20.793 73.169,20.825 C73.125,20.859 73.087,20.907 73.056,20.970 C73.024,21.033 73.008,21.122 73.008,21.235 C73.008,21.292 73.013,21.341 73.020,21.382 C73.029,21.423 73.040,21.458 73.054,21.488 C73.067,21.517 73.082,21.541 73.099,21.560 C73.116,21.578 73.130,21.593 73.145,21.605 C73.219,21.665 73.320,21.704 73.449,21.723 C73.577,21.741 73.727,21.751 73.897,21.751 L74.872,21.751 L74.872,21.979 L73.659,21.979 C73.590,21.979 73.516,21.978 73.437,21.974 C73.357,21.971 73.277,21.963 73.196,21.950 C73.115,21.938 73.036,21.920 72.957,21.896 C72.879,21.872 72.807,21.840 72.741,21.801 C72.672,21.760 72.619,21.716 72.580,21.668 C72.542,21.621 72.514,21.572 72.494,21.522 C72.475,21.473 72.463,21.424 72.457,21.375 C72.451,21.327 72.449,21.281 72.449,21.239 C72.449,21.185 72.452,21.131 72.459,21.077 C72.466,21.022 72.479,20.969 72.498,20.918 ZM80.279,20.437 C80.407,20.437 80.506,20.449 80.575,20.472 C80.643,20.496 80.697,20.524 80.736,20.557 L81.957,21.579 C81.968,21.586 81.977,21.594 81.984,21.603 C81.991,21.612 82.005,21.616 82.024,21.616 C82.045,21.616 82.058,21.611 82.063,21.602 C82.066,21.592 82.069,21.585 82.069,21.579 L82.069,20.455 L82.595,20.455 L82.595,21.782 C82.595,21.859 82.554,21.914 82.470,21.947 C82.386,21.980 82.285,21.997 82.167,21.997 C82.079,21.997 81.996,21.989 81.917,21.973 C81.837,21.958 81.765,21.922 81.703,21.869 L80.488,20.853 C80.467,20.837 80.451,20.827 80.444,20.823 C80.435,20.819 80.429,20.817 80.422,20.817 C80.412,20.817 80.399,20.820 80.385,20.826 C80.372,20.833 80.365,20.844 80.365,20.860 L80.365,21.979 L79.839,21.979 L79.839,20.645 C79.839,20.579 79.878,20.528 79.956,20.492 C80.034,20.455 80.142,20.437 80.279,20.437 ZM86.554,20.684 L85.427,20.684 L85.427,21.979 L84.883,21.979 L84.883,20.684 L83.760,20.684 L83.760,20.455 L86.554,20.455 L86.554,20.684 ZM87.816,20.514 C87.863,20.486 87.919,20.469 87.984,20.464 C88.048,20.458 88.108,20.455 88.162,20.455 L90.010,20.455 L90.010,20.684 L88.454,20.684 C88.430,20.684 88.404,20.685 88.379,20.687 C88.352,20.689 88.329,20.695 88.306,20.705 C88.285,20.717 88.271,20.730 88.267,20.743 C88.263,20.756 88.261,20.768 88.261,20.779 L88.261,21.086 L89.969,21.086 L89.969,21.315 L88.261,21.315 L88.261,21.673 C88.261,21.700 88.275,21.720 88.302,21.731 C88.319,21.740 88.343,21.746 88.374,21.748 C88.406,21.750 88.444,21.751 88.487,21.751 L90.026,21.751 L90.026,21.979 L88.154,21.979 C88.091,21.979 88.032,21.978 87.977,21.974 C87.922,21.971 87.872,21.957 87.825,21.932 C87.776,21.907 87.745,21.878 87.734,21.846 C87.723,21.813 87.718,21.782 87.718,21.753 L87.718,20.673 C87.718,20.642 87.727,20.613 87.744,20.585 C87.763,20.556 87.787,20.533 87.816,20.514 Z"/>
</svg>