<svg 
 xmlns="http://www.w3.org/2000/svg"
 xmlns:xlink="http://www.w3.org/1999/xlink"
 width="17px" height="16px">
<path fill-rule="evenodd"  fill="rgb(255, 255, 255)"
 d="M5.353,15.996 C2.696,15.996 0.533,13.897 0.528,11.318 L0.528,4.681 C0.533,2.102 2.696,0.003 5.353,0.003 L12.193,0.003 C14.846,0.004 17.007,2.103 17.010,4.681 L17.010,11.317 C17.007,13.896 14.846,15.994 12.193,15.996 L5.353,15.996 ZM5.351,1.393 C3.483,1.393 1.962,2.868 1.961,4.681 L1.961,11.318 C1.966,13.130 3.488,14.606 5.353,14.606 L12.193,14.606 C14.055,14.602 15.573,13.126 15.577,11.318 L15.577,4.681 C15.577,2.870 14.058,1.395 12.193,1.393 L5.351,1.393 ZM8.775,12.346 C6.313,12.346 4.308,10.400 4.302,8.007 C4.301,6.846 4.764,5.754 5.607,4.932 C6.451,4.109 7.574,3.654 8.768,3.653 C11.242,3.653 13.250,5.604 13.251,8.000 C13.251,10.392 11.247,12.342 8.784,12.346 L8.775,12.346 ZM8.776,5.044 C7.103,5.044 5.739,6.367 5.735,7.992 C5.732,8.782 6.047,9.525 6.620,10.085 C7.194,10.644 7.956,10.953 8.769,10.955 C10.449,10.955 11.816,9.628 11.819,8.000 C11.820,6.374 10.458,5.049 8.784,5.044 L8.776,4.969 L8.776,5.044 ZM13.235,4.364 C12.841,4.364 12.519,4.052 12.519,3.668 C12.519,3.483 12.593,3.308 12.730,3.177 C12.864,3.046 13.044,2.973 13.235,2.973 C13.628,2.976 13.949,3.287 13.951,3.668 C13.951,4.052 13.630,4.364 13.235,4.364 Z"/>
</svg>
