<svg 
 xmlns="http://www.w3.org/2000/svg"
 xmlns:xlink="http://www.w3.org/1999/xlink"
 width="46px" height="46px">
<path fill-rule="evenodd"  fill="rgb(2, 171, 255)"
 d="M45.519,43.316 L24.275,21.895 L25.310,20.851 L45.734,41.444 L46.000,39.073 L30.021,22.961 C29.562,22.498 29.533,21.761 29.939,21.261 L26.390,19.762 L30.017,16.105 C30.919,15.195 31.433,13.947 31.433,12.672 C31.433,11.397 30.919,10.141 30.021,9.242 L22.261,1.417 C21.366,0.515 20.127,-0.003 18.863,-0.003 C17.591,-0.003 16.353,0.515 15.458,1.417 L1.416,15.576 C0.514,16.485 0.000,17.734 0.000,19.009 C0.003,20.288 0.514,21.541 1.416,22.443 L9.173,30.264 C10.962,32.076 14.186,32.076 15.975,30.264 L19.935,26.271 L21.465,29.805 C21.954,29.403 22.686,29.425 23.148,29.891 L30.324,37.127 L32.317,37.131 C33.011,37.131 33.573,37.697 33.577,38.402 L36.091,38.402 C36.787,38.402 37.345,38.965 37.345,39.666 L37.345,42.201 C38.039,42.201 38.605,42.764 38.605,43.465 L38.605,45.478 L39.123,46.000 L45.260,45.627 L45.519,43.316 ZM11.054,20.016 C10.522,20.552 9.598,20.552 9.066,20.016 C8.799,19.747 8.652,19.390 8.652,19.009 C8.652,18.629 8.799,18.271 9.066,18.003 L17.864,9.130 C18.131,8.862 18.485,8.713 18.863,8.713 C19.240,8.713 19.588,8.862 19.853,9.130 C20.120,9.399 20.268,9.757 20.268,10.137 C20.268,10.517 20.120,10.875 19.853,11.143 L11.054,20.016 Z"/>
</svg>