<svg 
 xmlns="http://www.w3.org/2000/svg"
 xmlns:xlink="http://www.w3.org/1999/xlink"
 width="116px" height="17px">
<path fill-rule="evenodd"  fill="rgb(49, 71, 99)"
 d="M115.393,16.183 C114.811,16.809 114.000,16.856 113.303,16.856 L106.057,16.856 C105.292,16.856 104.454,16.809 103.804,16.183 C102.853,15.292 102.805,13.607 102.805,12.596 C102.805,11.487 102.898,10.140 103.876,9.370 C104.548,8.838 105.337,8.815 106.057,8.815 L111.446,8.815 L111.446,8.622 C111.446,8.404 111.423,8.070 111.214,7.781 C110.865,7.300 110.284,7.273 109.819,7.273 L103.643,7.273 L103.643,4.097 L111.794,4.097 C113.303,4.097 114.301,4.652 114.836,5.204 C115.857,6.240 115.997,7.756 115.997,8.791 L115.997,14.134 C115.997,14.809 115.950,15.581 115.393,16.183 ZM111.446,11.848 L108.216,11.848 C108.078,11.848 107.751,11.871 107.544,12.066 C107.380,12.235 107.357,12.452 107.357,12.669 C107.357,12.861 107.380,13.054 107.544,13.221 C107.705,13.367 107.963,13.439 108.170,13.439 L110.541,13.439 C110.772,13.439 111.073,13.390 111.214,13.270 C111.423,13.101 111.446,12.861 111.446,12.643 L111.446,11.848 ZM98.509,8.334 C97.977,9.080 97.906,10.043 97.906,10.766 L97.906,16.856 L93.354,16.856 L93.354,9.466 C93.354,8.239 93.449,6.456 94.817,5.302 C96.164,4.144 98.161,4.097 99.370,4.097 L102.389,4.097 L102.389,7.419 L100.808,7.419 C99.925,7.419 99.090,7.540 98.509,8.334 ZM85.136,16.999 C83.184,16.999 81.000,16.930 79.651,15.702 C78.120,14.280 78.029,11.752 78.029,10.476 C78.029,9.201 78.120,6.673 79.651,5.251 C81.000,4.024 83.184,3.952 85.136,3.952 C87.084,3.952 89.268,4.024 90.615,5.251 C92.150,6.673 92.241,9.201 92.241,10.476 C92.241,11.752 92.150,14.280 90.615,15.702 C89.268,16.930 87.084,16.999 85.136,16.999 ZM87.153,8.190 C86.923,7.877 86.387,7.372 85.136,7.372 C83.879,7.372 83.346,7.877 83.114,8.190 C82.950,8.429 82.672,8.984 82.672,10.476 C82.672,11.871 82.929,12.452 83.114,12.714 C83.207,12.861 83.740,13.581 85.136,13.581 C86.363,13.581 86.923,13.029 87.129,12.714 C87.502,12.186 87.595,11.392 87.595,10.476 C87.595,9.128 87.387,8.528 87.153,8.190 ZM74.405,16.856 L68.296,16.856 C66.393,16.856 65.048,15.989 64.419,14.401 C63.932,13.196 63.862,11.728 63.862,10.165 C63.862,8.599 63.932,7.131 64.769,5.902 C65.836,4.338 67.579,4.097 68.855,4.097 L72.363,4.097 L72.363,0.004 L76.913,0.004 L76.913,14.160 C76.913,14.713 76.843,15.510 76.518,15.989 C75.986,16.809 75.078,16.856 74.405,16.856 ZM72.363,7.372 L70.364,7.372 C69.622,7.372 69.156,7.756 68.901,8.141 C68.461,8.791 68.413,9.731 68.413,10.431 C68.413,11.634 68.530,12.235 68.739,12.643 C69.156,13.487 69.970,13.581 70.364,13.581 L71.454,13.581 C71.897,13.581 72.083,13.439 72.130,13.390 C72.363,13.173 72.363,12.714 72.363,12.520 L72.363,7.372 ZM58.196,10.380 C58.196,9.490 58.124,8.767 57.685,8.190 C57.290,7.660 56.734,7.419 55.803,7.419 L54.991,7.419 C54.804,7.419 54.552,7.443 54.363,7.613 C54.133,7.827 54.156,8.094 54.156,8.334 L54.156,16.856 L49.604,16.856 L49.604,6.383 C49.604,5.902 49.626,5.302 50.114,4.819 C50.810,4.097 52.040,4.097 52.807,4.097 L57.082,4.097 C58.497,4.097 59.961,4.192 61.215,5.229 C62.585,6.361 62.747,7.901 62.747,9.008 L62.747,16.856 L58.196,16.856 L58.196,10.380 ZM45.518,16.856 L38.271,16.856 C37.504,16.856 36.669,16.809 36.018,16.183 C35.066,15.292 35.019,13.607 35.019,12.596 C35.019,11.487 35.112,10.140 36.087,9.370 C36.762,8.838 37.548,8.815 38.271,8.815 L43.658,8.815 L43.658,8.622 C43.658,8.404 43.635,8.070 43.427,7.781 C43.078,7.300 42.498,7.273 42.032,7.273 L35.856,7.273 L35.856,4.097 L44.007,4.097 C45.518,4.097 46.516,4.652 47.050,5.204 C48.070,6.240 48.211,7.756 48.211,8.791 L48.211,14.134 C48.211,14.809 48.163,15.581 47.606,16.183 C47.025,16.809 46.211,16.856 45.518,16.856 ZM43.658,11.848 L40.430,11.848 C40.291,11.848 39.964,11.871 39.756,12.066 C39.595,12.235 39.570,12.452 39.570,12.669 C39.570,12.861 39.595,13.054 39.756,13.221 C39.918,13.367 40.175,13.439 40.384,13.439 L42.752,13.439 C42.985,13.439 43.287,13.390 43.427,13.270 C43.635,13.101 43.658,12.861 43.658,12.643 L43.658,11.848 ZM30.282,11.995 L23.432,11.995 L23.432,16.856 L18.184,16.856 L18.184,3.181 C18.184,2.483 18.274,1.520 18.832,0.872 C19.182,0.462 19.876,0.004 20.994,0.004 L29.981,0.004 C31.281,0.004 32.487,0.171 33.394,1.184 C34.160,2.027 34.603,3.350 34.603,5.780 C34.603,6.962 34.510,9.850 33.138,11.078 C32.372,11.752 31.165,11.995 30.282,11.995 ZM28.890,4.578 C28.447,4.192 27.844,4.192 27.238,4.192 L24.338,4.192 C23.500,4.192 23.432,4.819 23.432,5.179 L23.432,7.805 L27.193,7.805 C27.844,7.805 28.494,7.852 28.934,7.372 C29.191,7.082 29.352,6.600 29.352,5.902 C29.352,5.470 29.307,4.939 28.890,4.578 ZM11.372,16.856 L2.666,16.856 C1.175,16.856 -0.005,15.553 -0.005,14.365 L-0.005,8.205 C3.901,8.205 7.767,8.205 11.676,8.205 C11.676,8.021 11.676,7.663 11.676,7.646 C11.688,6.113 12.123,4.690 12.858,3.498 C13.595,4.690 14.030,6.115 14.043,7.650 C14.043,7.665 14.043,8.021 14.043,8.205 L14.043,14.365 C14.043,15.553 12.861,16.856 11.372,16.856 ZM8.340,11.703 C8.340,9.861 5.697,9.863 5.697,11.703 L5.697,13.369 C5.697,15.212 8.340,15.212 8.340,13.369 L8.340,11.703 ZM12.346,3.718 L12.223,3.958 L12.111,4.206 L12.003,4.459 L11.904,4.713 L11.815,4.973 L11.730,5.238 L11.658,5.510 L11.593,5.780 L11.539,6.058 L11.495,6.335 L11.466,6.544 C11.030,4.249 9.262,2.672 7.018,2.672 C4.453,2.672 2.362,4.939 2.362,7.718 L-0.005,7.718 C-0.005,3.526 3.152,0.106 7.018,0.106 C9.386,0.106 11.375,1.232 12.649,3.189 L12.476,3.481 L12.346,3.718 Z"/>
</svg>