<svg 
 xmlns="http://www.w3.org/2000/svg"
 xmlns:xlink="http://www.w3.org/1999/xlink"
 width="151px" height="22px">
<path fill-rule="evenodd"  fill="rgb(25, 39, 47)"
 d="M150.209,20.943 C149.452,21.753 148.396,21.815 147.488,21.815 L138.057,21.815 C137.061,21.815 135.971,21.753 135.124,20.943 C133.886,19.790 133.824,17.609 133.824,16.301 C133.824,14.866 133.945,13.123 135.218,12.126 C136.093,11.438 137.120,11.408 138.057,11.408 L145.071,11.408 L145.071,11.159 C145.071,10.876 145.042,10.444 144.769,10.069 C144.316,9.447 143.559,9.412 142.954,9.412 L134.914,9.412 L134.914,5.302 L145.524,5.302 C147.488,5.302 148.788,6.020 149.484,6.735 C150.814,8.075 150.995,10.037 150.995,11.377 L150.995,18.291 C150.995,19.165 150.936,20.164 150.209,20.943 ZM145.071,15.333 L140.867,15.333 C140.688,15.333 140.262,15.363 139.993,15.615 C139.779,15.834 139.750,16.114 139.750,16.395 C139.750,16.644 139.779,16.893 139.993,17.110 C140.203,17.299 140.537,17.392 140.807,17.392 L143.893,17.392 C144.195,17.392 144.585,17.328 144.769,17.173 C145.042,16.955 145.071,16.644 145.071,16.362 L145.071,15.333 ZM128.232,10.785 C127.539,11.750 127.447,12.997 127.447,13.932 L127.447,21.815 L121.521,21.815 L121.521,12.251 C121.521,10.662 121.645,8.355 123.425,6.861 C125.179,5.363 127.779,5.302 129.352,5.302 L133.282,5.302 L133.282,9.602 L131.224,9.602 C130.075,9.602 128.988,9.758 128.232,10.785 ZM110.823,21.999 C108.282,21.999 105.440,21.909 103.684,20.320 C101.691,18.481 101.571,15.208 101.571,13.558 C101.571,11.907 101.691,8.636 103.684,6.796 C105.440,5.208 108.282,5.114 110.823,5.114 C113.359,5.114 116.202,5.208 117.955,6.796 C119.953,8.636 120.072,11.907 120.072,13.558 C120.072,15.208 119.953,18.481 117.955,20.320 C116.202,21.909 113.359,21.999 110.823,21.999 ZM113.449,10.598 C113.149,10.194 112.452,9.541 110.823,9.541 C109.187,9.541 108.493,10.194 108.191,10.598 C107.978,10.908 107.616,11.627 107.616,13.558 C107.616,15.363 107.951,16.114 108.191,16.454 C108.312,16.644 109.006,17.576 110.823,17.576 C112.420,17.576 113.149,16.861 113.418,16.454 C113.903,15.770 114.025,14.743 114.025,13.558 C114.025,11.812 113.753,11.036 113.449,10.598 ZM96.854,21.815 L88.903,21.815 C86.426,21.815 84.675,20.691 83.855,18.638 C83.222,17.077 83.130,15.178 83.130,13.155 C83.130,11.129 83.222,9.229 84.311,7.639 C85.700,5.614 87.969,5.302 89.631,5.302 L94.196,5.302 L94.196,0.005 L100.120,0.005 L100.120,18.324 C100.120,19.041 100.029,20.072 99.606,20.691 C98.912,21.753 97.731,21.815 96.854,21.815 ZM94.196,9.541 L91.595,9.541 C90.628,9.541 90.022,10.037 89.689,10.536 C89.118,11.377 89.055,12.594 89.055,13.499 C89.055,15.056 89.207,15.834 89.479,16.362 C90.022,17.454 91.082,17.576 91.595,17.576 L93.013,17.576 C93.590,17.576 93.832,17.392 93.892,17.328 C94.196,17.048 94.196,16.454 94.196,16.203 L94.196,9.541 ZM75.755,13.432 C75.755,12.281 75.661,11.346 75.089,10.598 C74.576,9.913 73.851,9.602 72.640,9.602 L71.583,9.602 C71.340,9.602 71.011,9.632 70.766,9.853 C70.465,10.130 70.495,10.475 70.495,10.785 L70.495,21.815 L64.570,21.815 L64.570,8.261 C64.570,7.639 64.599,6.861 65.234,6.237 C66.141,5.302 67.742,5.302 68.739,5.302 L74.304,5.302 C76.146,5.302 78.053,5.425 79.685,6.766 C81.468,8.232 81.679,10.224 81.679,11.658 L81.679,21.815 L75.755,21.815 L75.755,13.432 ZM59.251,21.815 L49.818,21.815 C48.820,21.815 47.732,21.753 46.886,20.943 C45.646,19.790 45.586,17.609 45.586,16.301 C45.586,14.866 45.707,13.123 46.975,12.126 C47.854,11.438 48.877,11.408 49.818,11.408 L56.830,11.408 L56.830,11.159 C56.830,10.876 56.801,10.444 56.529,10.069 C56.076,9.447 55.320,9.412 54.714,9.412 L46.674,9.412 L46.674,5.302 L57.284,5.302 C59.251,5.302 60.550,6.020 61.247,6.735 C62.574,8.075 62.757,10.037 62.757,11.377 L62.757,18.291 C62.757,19.165 62.695,20.164 61.969,20.943 C61.214,21.753 60.154,21.815 59.251,21.815 ZM56.830,15.333 L52.628,15.333 C52.448,15.333 52.022,15.363 51.752,15.615 C51.542,15.834 51.509,16.114 51.509,16.395 C51.509,16.644 51.542,16.893 51.752,17.110 C51.963,17.299 52.296,17.392 52.569,17.392 L55.652,17.392 C55.954,17.392 56.348,17.328 56.529,17.173 C56.801,16.955 56.830,16.644 56.830,16.362 L56.830,15.333 ZM39.419,15.523 L30.502,15.523 L30.502,21.815 L23.670,21.815 L23.670,4.117 C23.670,3.214 23.788,1.967 24.514,1.128 C24.969,0.599 25.873,0.005 27.327,0.005 L39.026,0.005 C40.720,0.005 42.289,0.222 43.469,1.532 C44.467,2.623 45.043,4.336 45.043,7.481 C45.043,9.010 44.922,12.747 43.137,14.337 C42.139,15.208 40.568,15.523 39.419,15.523 ZM37.606,5.924 C37.030,5.425 36.245,5.425 35.457,5.425 L31.681,5.425 C30.591,5.425 30.502,6.237 30.502,6.702 L30.502,10.101 L35.398,10.101 C36.245,10.101 37.091,10.162 37.664,9.541 C37.998,9.165 38.209,8.541 38.209,7.639 C38.209,7.079 38.149,6.392 37.606,5.924 ZM14.803,21.815 L3.470,21.815 C1.530,21.815 -0.006,20.128 -0.006,18.590 L-0.006,10.619 C5.077,10.619 10.111,10.619 15.199,10.619 C15.199,10.381 15.199,9.917 15.199,9.895 C15.214,7.911 15.780,6.070 16.737,4.527 C17.696,6.070 18.263,7.913 18.280,9.901 C18.280,9.919 18.280,10.381 18.280,10.619 L18.280,18.590 C18.280,20.128 16.741,21.815 14.803,21.815 ZM10.857,15.144 C10.857,12.762 7.416,12.764 7.416,15.144 L7.416,17.302 C7.416,19.685 10.857,19.685 10.857,17.302 L10.857,15.144 ZM16.071,4.812 L15.910,5.123 L15.764,5.444 L15.624,5.770 L15.496,6.099 L15.379,6.435 L15.269,6.778 L15.175,7.131 L15.091,7.481 L15.020,7.839 L14.963,8.199 L14.926,8.469 C14.359,5.499 12.056,3.458 9.135,3.458 C5.796,3.458 3.074,6.391 3.074,9.989 L-0.006,9.989 C-0.006,4.564 4.102,0.138 9.135,0.138 C12.218,0.138 14.807,1.594 16.465,4.127 L16.240,4.505 L16.071,4.812 Z"/>
</svg>