<svg 
 xmlns="http://www.w3.org/2000/svg"
 xmlns:xlink="http://www.w3.org/1999/xlink"
 width="68px" height="47px">
<path fill-rule="evenodd"  fill="rgb(118, 144, 177)"
 d="M56.654,24.256 C55.026,24.256 53.463,24.593 51.990,25.265 L51.402,25.527 L48.734,21.543 L49.446,21.133 C52.252,19.534 55.443,18.690 58.667,18.690 C59.362,18.690 59.927,18.124 59.927,17.427 L59.927,13.386 C59.927,5.999 53.929,-0.011 46.557,-0.011 L40.274,-0.011 L40.274,2.515 L45.298,2.515 L45.298,8.081 L38.351,8.081 C37.933,8.081 37.541,8.286 37.304,8.639 L34.988,12.123 L17.364,12.123 L16.120,10.262 C15.212,8.893 13.690,8.081 12.054,8.081 L1.891,8.081 C1.196,8.081 0.632,8.647 0.632,9.344 C0.632,14.115 4.199,18.108 8.920,18.632 L9.272,18.673 L12.970,24.224 L11.603,24.265 C8.658,24.363 5.900,25.585 3.839,27.717 C1.769,29.856 0.632,32.660 0.632,35.628 C0.632,41.900 5.721,46.999 11.980,46.999 C16.774,46.999 21.079,43.958 22.683,39.423 L22.862,38.915 L35.372,38.915 C37.696,38.915 39.717,37.259 40.167,34.972 L40.453,33.537 C41.223,29.717 43.154,26.290 46.042,23.625 L46.696,23.027 L49.315,26.938 L48.848,27.380 C46.566,29.553 45.298,32.480 45.298,35.628 C45.298,41.900 50.395,46.999 56.654,46.999 C62.905,46.999 68.003,41.900 68.003,35.628 C68.003,29.356 62.905,24.256 56.654,24.256 ZM33.311,14.648 L29.604,20.215 L22.747,20.215 L19.041,14.648 L33.311,14.648 ZM19.631,40.047 C18.043,42.777 15.114,44.482 11.980,44.482 C7.112,44.482 3.143,40.514 3.143,35.628 C3.143,30.750 7.112,26.781 11.980,26.781 C12.365,26.781 12.757,26.806 13.158,26.856 L13.698,26.929 L13.715,28.282 L13.175,28.364 C10.630,28.765 8.699,31.020 8.699,33.611 C8.699,36.530 11.080,38.899 14.001,38.899 L20.293,38.899 L19.631,40.047 ZM14.001,36.390 C12.463,36.390 11.219,35.144 11.219,33.611 C11.219,32.070 12.463,30.824 14.001,30.824 L25.464,30.824 L28.246,36.390 L14.001,36.390 ZM44.594,21.543 C41.165,24.601 38.883,28.577 37.991,33.045 L37.705,34.480 C37.484,35.587 36.502,36.390 35.372,36.390 L32.525,36.390 C31.617,36.390 30.807,35.890 30.398,35.078 L27.371,28.995 C27.150,28.569 26.724,28.299 26.241,28.299 L19.982,28.299 C19.180,28.299 18.444,27.905 18.002,27.241 L11.006,16.731 C10.777,16.378 10.385,16.165 9.959,16.165 C7.079,16.165 4.502,14.337 3.536,11.615 L3.176,10.598 L12.054,10.598 C12.847,10.598 13.592,11.000 14.034,11.664 L21.021,22.174 C21.259,22.527 21.651,22.732 22.069,22.732 L30.275,22.732 C30.700,22.732 31.093,22.527 31.322,22.174 L36.706,14.091 L39.022,10.590 L46.557,10.590 C47.253,10.590 47.818,10.024 47.818,9.344 L47.818,2.539 L48.726,2.728 C53.758,3.761 57.407,8.237 57.407,13.386 L57.407,16.198 L56.719,16.255 C52.260,16.673 47.949,18.550 44.594,21.543 ZM56.654,44.482 C51.778,44.482 47.818,40.514 47.818,35.628 C47.818,33.463 48.612,31.373 50.060,29.749 L50.706,29.012 L55.533,36.218 L57.710,34.964 C57.710,34.956 57.702,34.939 57.693,34.931 L52.800,27.610 L53.725,27.282 C54.666,26.946 55.648,26.781 56.654,26.781 C61.523,26.781 65.483,30.750 65.483,35.628 C65.483,40.514 61.523,44.482 56.654,44.482 Z"/>
</svg>