<svg 
 xmlns="http://www.w3.org/2000/svg"
 xmlns:xlink="http://www.w3.org/1999/xlink"
 width="13px" height="18px">
<path fill-rule="evenodd"  fill="rgb(255, 255, 255)"
 d="M13.009,14.193 L12.460,17.012 C12.333,17.680 11.705,18.110 11.065,17.977 C3.601,16.397 -1.239,8.775 0.275,0.986 C0.403,0.318 1.030,-0.116 1.671,0.021 L4.379,0.592 C4.405,0.598 4.431,0.605 4.457,0.612 C4.733,0.692 4.896,0.997 4.808,1.282 C4.530,2.191 4.379,3.161 4.379,4.166 C4.379,4.710 4.422,5.246 4.509,5.767 C4.548,6.003 4.475,6.244 4.303,6.403 L3.105,7.509 C3.729,9.707 4.705,11.243 6.411,12.717 L7.822,12.010 C8.030,11.905 8.274,11.929 8.467,12.063 C9.671,12.892 11.075,13.426 12.587,13.572 C12.880,13.600 13.071,13.877 13.011,14.178 L13.009,14.193 Z"/>
</svg>