<svg 
 xmlns="http://www.w3.org/2000/svg"
 xmlns:xlink="http://www.w3.org/1999/xlink"
 width="55px" height="55px">
<path fill-rule="evenodd"  fill="rgb(118, 144, 177)"
 d="M27.496,54.998 C12.308,54.998 -0.005,42.685 -0.005,27.497 C-0.005,12.309 12.308,-0.004 27.496,-0.004 C42.684,-0.004 54.996,12.309 54.996,27.497 C54.996,42.685 42.684,54.998 27.496,54.998 ZM27.496,2.089 C13.486,2.089 2.088,13.487 2.088,27.497 C2.088,41.507 13.486,52.904 27.496,52.904 C41.505,52.904 52.904,41.507 52.904,27.497 C52.904,13.487 41.505,2.089 27.496,2.089 ZM27.496,50.192 C14.961,50.192 4.801,40.031 4.801,27.497 C4.801,14.963 14.961,4.802 27.496,4.802 C40.030,4.802 50.191,14.963 50.191,27.497 C50.191,40.031 40.030,50.192 27.496,50.192 ZM27.496,6.371 C15.847,6.371 6.370,15.848 6.370,27.497 C6.370,39.146 15.847,48.622 27.496,48.622 C39.144,48.622 48.622,39.146 48.622,27.497 C48.622,15.848 39.144,6.371 27.496,6.371 ZM37.272,34.222 L36.187,34.222 L36.187,29.836 L34.596,29.836 L34.596,28.958 L38.884,28.958 L38.884,29.836 L37.272,29.836 L37.272,34.222 ZM34.366,23.336 L37.043,23.336 L37.043,24.004 L35.191,24.004 L35.191,24.958 L36.775,24.958 L36.775,25.598 L35.191,25.598 L35.191,26.676 L37.048,26.676 L37.048,27.338 L34.366,27.338 L34.366,23.336 ZM32.176,32.295 L31.312,32.295 L31.312,34.222 L30.228,34.222 L30.228,28.958 L32.184,28.958 C32.806,28.958 33.285,29.096 33.623,29.374 C33.961,29.651 34.129,30.042 34.129,30.549 C34.129,30.908 34.052,31.207 33.896,31.447 C33.741,31.687 33.505,31.878 33.189,32.020 L34.328,34.172 L34.328,34.222 L33.164,34.222 L32.176,32.295 ZM32.833,30.049 C32.692,29.908 32.475,29.836 32.184,29.836 L31.312,29.836 L31.312,31.416 L32.187,31.416 C32.460,31.416 32.670,31.348 32.820,31.208 C32.969,31.070 33.045,30.879 33.045,30.636 C33.045,30.387 32.975,30.192 32.833,30.049 ZM30.392,27.338 L30.392,23.336 L31.216,23.336 L32.825,25.975 L32.825,23.336 L33.646,23.336 L33.646,27.338 L32.822,27.338 L31.216,24.705 L31.216,27.338 L30.392,27.338 ZM31.628,17.970 L22.871,17.970 C21.637,17.970 20.638,16.971 20.638,15.737 C20.638,14.504 21.637,13.505 22.871,13.505 L31.628,13.505 C32.861,13.505 33.860,14.504 33.860,15.737 C33.860,16.971 32.861,17.970 31.628,17.970 ZM24.197,23.336 L24.197,27.338 L23.372,27.338 L21.767,24.705 L21.767,27.338 L20.943,27.338 L20.943,23.336 L21.767,23.336 L23.375,25.975 L23.375,23.336 L24.197,23.336 ZM24.764,29.836 L23.152,29.836 L23.152,34.222 L22.067,34.222 L22.067,29.836 L20.477,29.836 L20.477,28.958 L24.764,28.958 L24.764,29.836 ZM17.777,23.336 L20.453,23.336 L20.453,24.004 L18.601,24.004 L18.601,24.958 L20.184,24.958 L20.184,25.598 L18.601,25.598 L18.601,26.676 L20.459,26.676 L20.459,27.338 L17.777,27.338 L17.777,23.336 ZM18.990,29.090 C19.284,29.226 19.513,29.418 19.676,29.667 C19.838,29.915 19.919,30.197 19.919,30.513 L18.835,30.513 C18.835,30.271 18.758,30.084 18.607,29.950 C18.455,29.817 18.242,29.750 17.967,29.750 C17.702,29.750 17.496,29.806 17.348,29.918 C17.202,30.030 17.128,30.178 17.128,30.361 C17.128,30.532 17.214,30.675 17.387,30.791 C17.559,30.906 17.813,31.015 18.147,31.117 C18.765,31.302 19.214,31.532 19.496,31.807 C19.778,32.082 19.919,32.424 19.919,32.834 C19.919,33.289 19.748,33.647 19.402,33.906 C19.057,34.165 18.594,34.295 18.010,34.295 C17.606,34.295 17.236,34.221 16.904,34.072 C16.571,33.924 16.317,33.721 16.143,33.463 C15.968,33.205 15.881,32.906 15.881,32.566 L16.969,32.566 C16.969,33.147 17.316,33.438 18.010,33.438 C18.268,33.438 18.470,33.386 18.614,33.280 C18.758,33.176 18.831,33.030 18.831,32.841 C18.831,32.637 18.758,32.479 18.614,32.369 C18.470,32.260 18.209,32.144 17.833,32.022 C17.457,31.900 17.159,31.781 16.941,31.662 C16.342,31.339 16.043,30.904 16.043,30.357 C16.043,30.073 16.124,29.819 16.284,29.596 C16.444,29.373 16.674,29.199 16.975,29.073 C17.274,28.948 17.612,28.885 17.986,28.885 C18.361,28.885 18.697,28.954 18.990,29.090 ZM19.919,40.557 C20.177,40.557 20.379,40.505 20.524,40.400 C20.668,40.295 20.740,40.149 20.740,39.961 C20.740,39.756 20.668,39.599 20.524,39.489 C20.379,39.379 20.118,39.264 19.742,39.142 C19.366,39.020 19.068,38.900 18.849,38.782 C18.251,38.459 17.952,38.024 17.952,37.477 C17.952,37.192 18.032,36.939 18.193,36.715 C18.353,36.493 18.583,36.319 18.883,36.193 C19.184,36.068 19.521,36.005 19.894,36.005 C20.270,36.005 20.605,36.074 20.900,36.209 C21.193,36.346 21.422,36.538 21.584,36.786 C21.747,37.034 21.829,37.316 21.829,37.632 L20.744,37.632 C20.744,37.391 20.668,37.204 20.516,37.069 C20.364,36.936 20.151,36.870 19.876,36.870 C19.611,36.870 19.405,36.925 19.258,37.037 C19.110,37.149 19.037,37.297 19.037,37.481 C19.037,37.652 19.123,37.795 19.296,37.911 C19.467,38.026 19.722,38.135 20.057,38.236 C20.674,38.422 21.124,38.652 21.406,38.927 C21.688,39.201 21.829,39.544 21.829,39.953 C21.829,40.409 21.656,40.767 21.312,41.026 C20.967,41.285 20.503,41.415 19.919,41.415 C19.514,41.415 19.145,41.340 18.813,41.192 C18.480,41.044 18.227,40.841 18.052,40.583 C17.877,40.325 17.790,40.026 17.790,39.686 L18.878,39.686 C18.878,40.267 19.226,40.557 19.919,40.557 ZM26.674,36.956 L25.061,36.956 L25.061,41.342 L23.976,41.342 L23.976,36.956 L22.385,36.956 L22.385,36.077 L26.674,36.077 L26.674,36.956 ZM29.628,27.338 L28.803,27.338 L28.803,23.336 L29.628,23.336 L29.628,27.338 ZM28.434,34.222 L28.069,33.137 L26.168,33.137 L25.806,34.222 L24.652,34.222 L26.612,28.958 L27.617,28.958 L29.588,34.222 L28.434,34.222 ZM27.115,30.288 L26.461,32.259 L27.777,32.259 L27.115,30.288 ZM26.508,25.843 L26.508,25.236 L28.083,25.236 L28.083,26.832 C27.935,27.010 27.725,27.148 27.454,27.246 C27.183,27.345 26.883,27.393 26.552,27.393 C26.206,27.393 25.902,27.318 25.641,27.167 C25.380,27.016 25.179,26.796 25.037,26.508 C24.895,26.220 24.822,25.883 24.818,25.494 L24.818,25.222 C24.818,24.823 24.886,24.477 25.020,24.185 C25.155,23.892 25.349,23.669 25.603,23.514 C25.857,23.359 26.154,23.281 26.494,23.281 C26.969,23.281 27.340,23.394 27.608,23.621 C27.875,23.847 28.034,24.177 28.083,24.609 L27.281,24.609 C27.244,24.380 27.163,24.213 27.038,24.106 C26.912,24.000 26.740,23.947 26.519,23.947 C26.239,23.947 26.025,24.052 25.879,24.262 C25.732,24.474 25.658,24.787 25.657,25.203 L25.657,25.458 C25.657,25.878 25.737,26.195 25.896,26.409 C26.055,26.623 26.289,26.730 26.596,26.730 C26.906,26.730 27.127,26.665 27.259,26.533 L27.259,25.843 L26.508,25.843 ZM28.252,36.322 C28.593,36.111 28.983,36.005 29.422,36.005 C29.860,36.005 30.250,36.111 30.591,36.322 C30.932,36.532 31.196,36.835 31.383,37.229 C31.570,37.623 31.663,38.078 31.663,38.594 L31.663,38.829 C31.663,39.347 31.572,39.801 31.389,40.192 C31.206,40.583 30.943,40.884 30.602,41.096 C30.261,41.308 29.870,41.415 29.428,41.415 C28.993,41.415 28.603,41.309 28.261,41.100 C27.918,40.890 27.653,40.591 27.465,40.201 C27.278,39.812 27.182,39.364 27.180,38.858 L27.180,38.598 C27.180,38.079 27.273,37.623 27.460,37.229 C27.647,36.835 27.911,36.532 28.252,36.322 ZM28.278,38.829 C28.278,39.367 28.377,39.784 28.576,40.080 C28.772,40.376 29.058,40.525 29.428,40.525 C29.792,40.525 30.072,40.382 30.268,40.096 C30.463,39.811 30.562,39.394 30.564,38.847 L30.564,38.590 C30.564,38.038 30.465,37.619 30.268,37.332 C30.070,37.045 29.788,36.902 29.422,36.902 C29.058,36.902 28.776,37.044 28.579,37.327 C28.381,37.610 28.281,38.025 28.278,38.572 L28.278,38.829 ZM35.696,36.294 C35.997,36.439 36.228,36.645 36.389,36.911 C36.551,37.177 36.631,37.481 36.631,37.820 C36.631,38.336 36.455,38.743 36.101,39.040 C35.749,39.338 35.260,39.487 34.636,39.487 L33.684,39.487 L33.684,41.342 L32.600,41.342 L32.600,36.077 L34.653,36.077 C35.049,36.077 35.396,36.150 35.696,36.294 ZM33.684,38.609 L34.653,38.609 C34.940,38.609 35.159,38.541 35.310,38.406 C35.461,38.271 35.536,38.078 35.536,37.827 C35.536,37.569 35.460,37.361 35.308,37.202 C35.156,37.043 34.946,36.961 34.679,36.956 L33.684,36.956 L33.684,38.609 Z"/>
</svg>